SubjData_BottomUpwalk_36
version=1
nRows=45
nColumns=19
inDegrees=no
endheader
time	l_ground_force_vx	l_ground_force_vy	l_ground_force_vz	l_ground_force_px	l_ground_force_py	l_ground_force_pz	ground_force_vx	ground_force_vy	ground_force_vz	ground_force_px	ground_force_py	ground_force_pz	l_ground_torque_x	l_ground_torque_y	l_ground_torque_z	ground_torque_x	ground_torque_y	ground_torque_z	
45.72	0	0	0	0	0	0	-10.375495932248	480.049306654965	-10.1644032684617	-0.103980657591149	0	0.0556977866459108	0	0	0	0	5.22306030419186	0
45.73	0	0	0	0	0	0	-8.63518554829709	484.504169615474	-9.61111757280186	-0.112779776802328	0	0.056107938552832	0	0	0	0	5.04756855273118	0
45.74	0	0	0	0	0	0	-6.07397426059692	489.862339127585	-9.29461598440011	-0.121840509154175	0	0.0567176113954175	0	0	0	0	5.1431545026958	0
45.75	0	0	0	0	0	0	-2.89609825428998	496.10852570149	-9.30790977136611	-0.131039191595455	0	0.0575755606673831	0	0	0	0	5.4455768470617	0
45.76	0	0	0	0	0	0	0.616729133849393	503.20905294885	-9.87772378336046	-0.140510391203252	0	0.0586705430423368	0	0	0	0	5.76771832556632	0
45.77	0	0	0	0	0	0	4.24538416009883	511.046691061194	-11.2890824423211	-0.150382903376413	0	0.0598921267783802	0	0	0	0	5.88735189194173	0
45.78	0	0	0	0	0	0	8.24574816836989	519.376515403263	-13.3352685521538	-0.160457192850335	0	0.0610909097523776	0	0	0	0	5.80399578189307	0
45.79	0	0	0	0	0	0	12.9842578855776	528.00652269994	-15.7619511686285	-0.170234049485342	0	0.062143684731913	0	0	0	0	5.62814784646511	0
45.8	0	0	0	0	0	0	18.5372528361819	536.748066524188	-18.3825104005433	-0.179584667467881	0	0.0628645495653151	0	0	0	0	5.4941988818152	0
45.81	0	0	0	0	0	0	24.733358226068	545.683911752136	-20.9300614997036	-0.188535156158818	0	0.0631697153875304	0	0	0	0	5.46203184690816	0
45.82	0	0	0	0	0	0	31.2495947563919	555.217250278576	-23.0511804269807	-0.197110241301677	0	0.0631484046329269	0	0	0	0	5.63863950831108	0
45.83	0	0	0	0	0	0	37.9209856563298	565.83079196227	-24.4776453111483	-0.205368352604771	0	0.0630212872105104	0	0	0	0	6.18441489630305	0
45.84	0	0	0	0	0	0	44.6428186171183	577.280397974819	-25.315934974037	-0.213350677676946	0	0.0628718411020963	0	0	0	0	7.08125336850604	0
45.85	0	0	0	0	0	0	51.2047748393611	588.819088596348	-25.6480397345779	-0.221078136060441	0	0.0628435862087883	0	0	0	0	8.02860892170056	0
45.86	0	0	0	0	0	0	57.2331340614625	599.264789679711	-25.5915205069853	-0.228583218328241	0	0.0629668263845413	0	0	0	0	8.81398948209799	0
45.87	0	0	0	0	0	0	62.723063027115	607.200181837495	-25.3786792437338	-0.23587139312498	0	0.0631484368290161	0	0	0	0	9.40792960904807	0
45.88	0	0	0	0	0	0	67.9104943235344	611.32528452488	-25.3115204842881	-0.242851517680841	0	0.0633193858868849	0	0	0	0	9.74329445825996	0
45.89	11.6683670866336	32.7026533148347	0.420768131302697	0.0840406236844913	0	-0.0119696627376283	72.9996904581408	610.521370418049	-25.4678005886486	-0.249622263031356	0	0.0634244712369437	0	17.4019286638218	0	0	9.87400322309596	0
45.9	19.6407126759391	57.4533776730041	-1.25281598164936	0.1024718926129	0	-0.0212393901118146	78.0916223829748	604.110307113509	-25.3747744813937	-0.256325231316234	0	0.0634302024046107	0	28.9196206985457	0	0	9.84311934864055	0
45.91	22.7543897069683	83.0308286783343	-3.94607555546641	0.103874878948041	0	-0.0232588097800393	82.9450448602501	591.914954610476	-24.6826927636284	-0.263046500948456	0	0.063306701656699	0	34.3746994212977	0	0	9.75289579492253	0
45.92	21.4246619404181	107.927281163417	-7.21569783116501	0.100298590045164	0	-0.023315769029398	87.0622510522195	574.183914143714	-23.2264751229766	-0.269946816586342	0	0.0630493535937553	0	34.0346672078265	0	0	9.74896075413722	0
45.93	17.2806049990918	133.250241939765	-10.1822451090023	0.0958672953516342	0	-0.0237384636908684	90.0341582573243	551.402072498848	-20.9786277463984	-0.277191835526093	0	0.0626677750116049	0	29.9848635730175	0	0	9.86514844797916	0
45.94	10.6624475019483	160.800212916332	-11.5830838364359	0.0922464570073046	0	-0.0250901242210322	91.6569243080481	523.596079506842	-18.0467700757288	-0.284704395023723	0	0.0620985587392199	0	22.689576257335	0	0	10.0288243144476	0
45.95	2.44606643579116	193.914644856204	-10.6913579061942	0.0904918899339397	0	-0.0278227900322189	91.5903846997967	490.461600058389	-14.478017755929	-0.292098629842498	0	0.0614323050560833	0	13.2776080339578	0	0	10.2321833863405	0
45.96	-7.32057777322651	234.987462915547	-7.2508824618998	0.0907875750332054	0	-0.0313656456599674	89.5873357196445	451.421409167283	-10.255193747687	-0.299068563870875	0	0.060818060932452	0	1.93372328375396	0	0	10.6574493542493	0
45.97	-18.9128845766239	283.490559235986	-1.80261047542623	0.0925857615669246	0	-0.0349299314067628	85.2558413936318	406.131545314732	-5.46183071678188	-0.305538639142607	0	0.0603287303713382	0	-11.5477227615393	0	0	11.2576552302214	0
45.98	-32.2075113724603	334.890756590105	4.15922360488224	0.0948391139929142	0	-0.0377937525139156	78.2561890398089	354.904525732936	-0.341613657355274	-0.311759849775858	0	0.0599572506282043	0	-27.0535255325992	0	0	11.7560303284976	0
45.99	-45.6815042516838	382.39368633831	9.36807296335099	0.0963285295520088	0	-0.0396008192446692	68.5289765103877	299.059922803759	4.36050427709287	-0.318388995234649	0	0.0594991685937183	0	-42.764222129809	0	0	11.6869665269911	0
46	-57.1963423607473	421.699383028171	13.2556613612192	0.0961962169741428	0	-0.0406085554150864	56.8549387238133	241.586042155012	7.5401791458232	-0.326119847018466	0	0.0587765178835546	0	-56.0278100923598	0	0	10.7658646047172	0
46.01	-65.6916530994463	453.418733144175	16.0960068772611	0.0941808333760774	0	-0.0410552767435668	44.9983907864626	186.329223863816	8.34775638106758	-0.335329533314622	0	0.0573445733163263	0	-65.5406654047657	0	0	9.05758450840947	0
46.02	-71.3821865912169	481.184595343754	18.283637220797	0.0901805814397274	0	-0.0412659384787417	34.6715441608109	136.858503765926	6.79722001812933	-0.346729541433712	0	0.0547311696712332	0	-71.5386014262091	0	0	6.91421859781711	0
46.03	-74.751634171539	507.501912036389	19.8328405513264	0.0844608795061178	0	-0.0414105592630941	26.4228138350729	95.5764524731008	3.9470455926359	-0.361059798812501	0	0.050573820886867	0	-74.5857767711919	0	0	4.74250208243693	0
46.04	-76.3260600199605	532.075482549063	20.7982852990961	0.07739858820206	0	-0.0415743323936997	19.6962942510431	63.4916519613048	1.17507854351703	-0.377424221433099	0	0.0447030860378439	0	-75.3118045572496	0	0	2.79437408924774	0
46.05	-76.3563341170811	553.186960644194	21.664110185666	0.0694284564168206	0	-0.0418204882701486	14.1221771657576	39.9824862991643	-0.774950308686579	-0.3934311290571	0	0.0354206075166375	0	-73.9941557390221	0	0	1.32278511501218	0
46.06	-74.844800283419	569.534723430571	22.9799243967744	0.0608820598397581	0	-0.0422435756362663	9.94582638163304	23.5512414711911	-1.70617018212041	-0.408879488535665	0	0.0193378593631347	0	-70.8629277209769	0	0	0.548724225278407	0
46.07	-71.9354527851195	580.581654569715	25.3199474672371	0.0519891588018369	0	-0.0428090360148811	0	0	0	0	0	0	0	-66.3347788309757	0	0	0	0
46.08	-67.9441607666398	586.510108468819	28.7619593507475	0.0428960550009363	0	-0.0435070672929874	0	0	0	0	0	0	0	-61.0444408911649	0	0	0	0
46.09	-63.2973074173388	587.667092823943	32.8168471376446	0.0339832407684369	0	-0.0442959663153065	0	0	0	0	0	0	0	-55.3661290022965	0	0	0	0
46.1	-58.3726089389448	584.541804528783	36.7213293676236	0.0254007131909682	0	-0.0450986811977129	0	0	0	0	0	0	0	-49.5120994965125	0	0	0	0
46.11	-53.3528996931806	578.012562099514	39.6085091995404	0.0168200894721846	0	-0.0458371697264959	0	0	0	0	0	0	0	-43.6564850069767	0	0	0	0
46.12	-48.3220108559391	569.40343784679	41.0282619912073	0.0080569597341766	0	-0.04642945835761	0	0	0	0	0	0	0	-37.7301648689815	0	0	0	0
46.13	-43.2500791110533	560.020907661929	40.9845634889722	-0.000876546218529974	0	-0.0467760558539785	0	0	0	0	0	0	0	-31.5767512291828	0	0	0	0
46.14	-38.1036895986685	550.579897304102	39.6422019193193	-0.00963340652478595	0	-0.0467957974714843	0	0	0	0	0	0	0	-25.1595124969115	0	0	0	0
46.15	-33.2464521080065	541.351746537459	37.5317773150307	-0.0177401074570792	0	-0.0465334257345791	0	0	0	0	0	0	0	-19.0247323517117	0	0	0	0
46.16	-28.8170330674556	532.622381753874	35.1635693151952	-0.0249606453188445	0	-0.0461689792244774	0	0	0	0	0	0	0	-13.5244095163218	0	0	0	0
